<svg xmlns="http://www.w3.org/2000/svg" viewBox="0 0 20 14.222">
  <defs>
    <style>
      .cls-1 {
        fill: #fffbfe;
      }
    </style>
  </defs>
  <path id="path" class="cls-1" d="M16.633,16.889a1.742,1.742,0,0,1-1.778,1.333H4.278A1.783,1.783,0,0,1,2.5,16.444V16c0-.267.089-.444.089-.711a9.225,9.225,0,0,1,.267-1.067c.533-1.156,4.178-2.578,6.756-2.578a13.322,13.322,0,0,1,4,.8,8.745,8.745,0,0,1,3.556-.889c1.956,0,4.622,1.156,5.067,2.044a2.23,2.23,0,0,1,.178.889c0,.178.089.356.089.533v.356a1.577,1.577,0,0,1-1.511,1.6H16.633v-.089ZM15.656,13.6a1.493,1.493,0,0,1,.622.711,5.523,5.523,0,0,1,.267.889h4.178a.534.534,0,0,0-.089-.356c0-.089,0-.267-.089-.267a.31.31,0,0,0-.178-.089,8.259,8.259,0,0,0-.889-.444,6.193,6.193,0,0,0-2.4-.533,2.013,2.013,0,0,0-1.422.089Zm1.511-2.933A2.619,2.619,0,0,1,14.5,8a2.667,2.667,0,1,1,5.333,0,2.619,2.619,0,0,1-2.667,2.667Zm0-1.778A.84.84,0,0,0,18.056,8a.889.889,0,0,0-1.778,0,.84.84,0,0,0,.889.889ZM9.611,10.578A3.34,3.34,0,0,1,6.322,7.289,3.34,3.34,0,0,1,9.611,4,3.34,3.34,0,0,1,12.9,7.289a3.34,3.34,0,0,1-3.289,3.289Zm0-1.778a1.558,1.558,0,0,0,1.511-1.511,1.511,1.511,0,1,0-3.022,0A1.558,1.558,0,0,0,9.611,8.8Zm5.156,6.311a1.227,1.227,0,0,0-.356-.267c-.356-.178-.8-.444-1.244-.622a10.288,10.288,0,0,0-3.556-.8,9.257,9.257,0,0,0-3.556.8c-.444.178-.889.444-1.244.622a1.227,1.227,0,0,0-.356.267h0a3.143,3.143,0,0,0-.089.533c0,.178-.089.444-.089.622v.178H14.856v-.178c0-.178-.089-.444-.089-.622v-.533Z" transform="translate(-2.5 -4)"/>
</svg>
