<svg xmlns="http://www.w3.org/2000/svg" viewBox="0 0 20 20">
  <defs>
    <style>
      .cls-1 {
        fill: #fff;
      }
    </style>
  </defs>
  <path id="phone-1" class="cls-1" d="M19.976,17.549l-2.588-2.156a.694.694,0,0,0-.7-.037l-1.438.958a.91.91,0,0,1-.509.153,5.983,5.983,0,0,1-1.28-.18,7.724,7.724,0,0,1-5.754-5.752,5.977,5.977,0,0,1-.18-1.28.909.909,0,0,1,.153-.509l.959-1.437a.681.681,0,0,0-.037-.7L6.444,4.022a.427.427,0,0,0-.73,0L4.285,5.77a2.549,2.549,0,0,0-.4,2.035.909.909,0,0,1,.027.105,4.671,4.671,0,0,0,.142.5,11.685,11.685,0,0,0,.654,1.563,20.775,20.775,0,0,0,3.973,5.332A20.76,20.76,0,0,0,14.02,19.28a11.693,11.693,0,0,0,1.563.654,4.822,4.822,0,0,0,.5.142.909.909,0,0,1,.126.033,2.492,2.492,0,0,0,2.014-.4l1.747-1.429A.426.426,0,0,0,19.976,17.549Zm-4.3-3.706A2.5,2.5,0,0,1,18.552,14l2.589,2.156a2.235,2.235,0,0,1-.015,3.534l-1.747,1.428a4.29,4.29,0,0,1-3.695.735q-.338-.077-.667-.188a13.5,13.5,0,0,1-1.809-.755A22.583,22.583,0,0,1,7.4,16.594a22.579,22.579,0,0,1-4.314-5.806,13.488,13.488,0,0,1-.755-1.809A6.833,6.833,0,0,1,2.14,8.3a4.343,4.343,0,0,1,.738-3.683L4.307,2.873a2.238,2.238,0,0,1,3.535-.015L10,5.445a2.485,2.485,0,0,1,.153,2.871L9.366,9.494a5.374,5.374,0,0,0,.11.62,5.948,5.948,0,0,0,.922,2.052,5.868,5.868,0,0,0,1.43,1.43,5.952,5.952,0,0,0,2.053.921,5.277,5.277,0,0,0,.62.11l1.179-.785Z" transform="translate(-2 -2)"/>
</svg>
