<svg xmlns="http://www.w3.org/2000/svg" viewBox="0 0 20 20.048">
  <defs>
    <style>
      .cls-1 {
        fill: #fffbfe;
      }
    </style>
  </defs>
  <path id="path" class="cls-1" d="M4.32,11.066l1.094,9.113c0,.273.365.547.638.547h12.94c.273,0,.638-.273.638-.547l1.094-9.113a.334.334,0,0,0-.365-.365H4.685c-.273,0-.365.091-.365.365ZM2.5,11.248a2.085,2.085,0,0,1,2.1-2.369H20.359a2.085,2.085,0,0,1,2.1,2.369l-1.094,9.113a2.543,2.543,0,0,1-2.46,2.187H6.052a2.533,2.533,0,0,1-2.46-2.187L2.5,11.248ZM6.143,7.512A.861.861,0,0,1,5.232,6.6a.861.861,0,0,1,.911-.911H18.9a.861.861,0,0,1,.911.911.861.861,0,0,1-.911.911ZM8.421,4.323a.861.861,0,0,1-.911-.911A.861.861,0,0,1,8.421,2.5h8.2a.861.861,0,0,1,.911.911.861.861,0,0,1-.911.911Z" transform="translate(-2.476 -2.5)"/>
</svg>
