<svg xmlns="http://www.w3.org/2000/svg" viewBox="0 0 24 24">
  <defs>
    <style>
      .cls-1 {
        fill: none;
      }

      .cls-2 {
        fill: #fffbfe;
      }
    </style>
  </defs>
  <g id="icons_light_back" data-name="icons/light/back" transform="translate(56 74) rotate(180)">
    <rect id="bg" class="cls-1" width="24" height="24" transform="translate(32 50)"/>
    <path id="icon" class="cls-2" d="M1595-9.819l-3.48-3.481a.444.444,0,0,1-.216-.381.442.442,0,0,1,.058-.219.446.446,0,0,1,.079-.107.437.437,0,0,1,.047-.041L1595-17.559a.444.444,0,0,1,.628,0,.444.444,0,0,1,0,.628l-2.806,2.806h7.513a.443.443,0,0,1,.444.444.444.444,0,0,1-.444.445h-7.5l2.789,2.789a.444.444,0,0,1,0,.628.443.443,0,0,1-.314.13A.443.443,0,0,1,1595-9.819Z" transform="translate(-1551.3 75.92)"/>
  </g>
</svg>
