<svg xmlns="http://www.w3.org/2000/svg" viewBox="0 0 40 40">
  <defs>
    <style>
      .cls-1 {
        fill: #fff;
      }

      .cls-2 {
        fill: #242e3a;
      }
    </style>
  </defs>
  <g id="message" transform="translate(-268 -572)">
    <rect id="bg" class="cls-1" width="40" height="40" rx="8" transform="translate(268 572)"/>
    <path id="envelope" class="cls-2" d="M2,9.943A1.884,1.884,0,0,1,3.821,8H16.179A1.887,1.887,0,0,1,18,9.943V18.5a1.884,1.884,0,0,1-1.821,1.943H3.821A1.887,1.887,0,0,1,2,18.5Zm14.545,2.93-6.171,3.96a.687.687,0,0,1-.749,0L3.455,12.873V18.5a.379.379,0,0,0,.366.387H16.179a.352.352,0,0,0,.258-.112.4.4,0,0,0,.108-.275V12.873Zm-.583-1.44a1.545,1.545,0,0,0,.583-1.1V9.943a.376.376,0,0,0-.361-.388H3.816a.376.376,0,0,0-.361.388v.393a1.551,1.551,0,0,0,.583,1.1L10,15.26Z" transform="translate(278.077 578.615)"/>
  </g>
</svg>
